<svg width="584" height="80" viewBox="0 0 584 80" fill="none" xmlns="http://www.w3.org/2000/svg">
<g clip-path="url(#clip0)">
<g filter="url(#filter0_d)">
<path d="M132.744 42.288V51H130.116V42.288L120.036 25.8H122.88L131.52 39.948L140.16 25.8H142.824L132.744 42.288ZM155.431 51.18C153.607 51.18 151.963 50.772 150.499 49.956C149.035 49.116 147.883 47.964 147.043 46.5C146.203 45.036 145.783 43.38 145.783 41.532C145.783 39.684 146.203 38.028 147.043 36.564C147.883 35.1 149.035 33.96 150.499 33.144C151.963 32.328 153.607 31.92 155.431 31.92C157.255 31.92 158.899 32.328 160.363 33.144C161.827 33.96 162.967 35.1 163.783 36.564C164.623 38.028 165.043 39.684 165.043 41.532C165.043 43.38 164.623 45.036 163.783 46.5C162.967 47.964 161.827 49.116 160.363 49.956C158.899 50.772 157.255 51.18 155.431 51.18ZM155.431 48.912C156.775 48.912 157.975 48.612 159.031 48.012C160.111 47.388 160.951 46.512 161.551 45.384C162.151 44.256 162.451 42.972 162.451 41.532C162.451 40.092 162.151 38.808 161.551 37.68C160.951 36.552 160.111 35.688 159.031 35.088C157.975 34.464 156.775 34.152 155.431 34.152C154.087 34.152 152.875 34.464 151.795 35.088C150.739 35.688 149.899 36.552 149.275 37.68C148.675 38.808 148.375 40.092 148.375 41.532C148.375 42.972 148.675 44.256 149.275 45.384C149.899 46.512 150.739 47.388 151.795 48.012C152.875 48.612 154.087 48.912 155.431 48.912ZM190.745 32.064V51H188.297V47.544C187.625 48.696 186.701 49.596 185.525 50.244C184.349 50.868 183.005 51.18 181.493 51.18C179.021 51.18 177.065 50.496 175.625 49.128C174.209 47.736 173.501 45.708 173.501 43.044V32.064H176.057V42.792C176.057 44.784 176.549 46.296 177.533 47.328C178.517 48.36 179.921 48.876 181.745 48.876C183.737 48.876 185.309 48.276 186.461 47.076C187.613 45.852 188.189 44.16 188.189 42V32.064H190.745ZM203.455 28.104H194.599V25.8H214.975V28.104H206.119V51H203.455V28.104ZM238.683 32.064V51H236.235V47.544C235.563 48.696 234.639 49.596 233.463 50.244C232.287 50.868 230.943 51.18 229.431 51.18C226.959 51.18 225.003 50.496 223.563 49.128C222.147 47.736 221.439 45.708 221.439 43.044V32.064H223.995V42.792C223.995 44.784 224.487 46.296 225.471 47.328C226.455 48.36 227.859 48.876 229.683 48.876C231.675 48.876 233.247 48.276 234.399 47.076C235.551 45.852 236.127 44.16 236.127 42V32.064H238.683ZM259.018 31.92C260.794 31.92 262.402 32.328 263.842 33.144C265.282 33.936 266.41 35.064 267.226 36.528C268.042 37.992 268.45 39.66 268.45 41.532C268.45 43.404 268.042 45.072 267.226 46.536C266.41 48 265.282 49.14 263.842 49.956C262.402 50.772 260.794 51.18 259.018 51.18C257.434 51.18 256.006 50.844 254.734 50.172C253.486 49.5 252.478 48.528 251.71 47.256V51H249.262V24.288H251.818V35.664C252.61 34.44 253.618 33.516 254.842 32.892C256.09 32.244 257.482 31.92 259.018 31.92ZM258.838 48.912C260.158 48.912 261.358 48.612 262.438 48.012C263.518 47.388 264.358 46.512 264.958 45.384C265.582 44.256 265.894 42.972 265.894 41.532C265.894 40.092 265.582 38.808 264.958 37.68C264.358 36.552 263.518 35.688 262.438 35.088C261.358 34.464 260.158 34.152 258.838 34.152C257.494 34.152 256.282 34.464 255.202 35.088C254.146 35.688 253.306 36.552 252.682 37.68C252.082 38.808 251.782 40.092 251.782 41.532C251.782 42.972 252.082 44.256 252.682 45.384C253.306 46.512 254.146 47.388 255.202 48.012C256.282 48.612 257.494 48.912 258.838 48.912ZM293.568 42.324H277.728C277.872 44.292 278.628 45.888 279.996 47.112C281.364 48.312 283.092 48.912 285.18 48.912C286.356 48.912 287.436 48.708 288.42 48.3C289.404 47.868 290.256 47.244 290.976 46.428L292.416 48.084C291.576 49.092 290.52 49.86 289.248 50.388C288 50.916 286.62 51.18 285.108 51.18C283.164 51.18 281.436 50.772 279.924 49.956C278.436 49.116 277.272 47.964 276.432 46.5C275.592 45.036 275.172 43.38 275.172 41.532C275.172 39.684 275.568 38.028 276.36 36.564C277.176 35.1 278.28 33.96 279.672 33.144C281.088 32.328 282.672 31.92 284.424 31.92C286.176 31.92 287.748 32.328 289.14 33.144C290.532 33.96 291.624 35.1 292.416 36.564C293.208 38.004 293.604 39.66 293.604 41.532L293.568 42.324ZM284.424 34.116C282.6 34.116 281.064 34.704 279.816 35.88C278.592 37.032 277.896 38.544 277.728 40.416H291.156C290.988 38.544 290.28 37.032 289.032 35.88C287.808 34.704 286.272 34.116 284.424 34.116ZM332.817 51L327.057 42.9C326.409 42.972 325.737 43.008 325.041 43.008H318.273V51H315.609V25.8H325.041C328.257 25.8 330.777 26.568 332.601 28.104C334.425 29.64 335.337 31.752 335.337 34.44C335.337 36.408 334.833 38.076 333.825 39.444C332.841 40.788 331.425 41.76 329.577 42.36L335.733 51H332.817ZM324.969 40.74C327.465 40.74 329.373 40.188 330.693 39.084C332.013 37.98 332.673 36.432 332.673 34.44C332.673 32.4 332.013 30.84 330.693 29.76C329.373 28.656 327.465 28.104 324.969 28.104H318.273V40.74H324.969ZM350.952 31.92C353.424 31.92 355.32 32.544 356.64 33.792C357.96 35.016 358.62 36.84 358.62 39.264V51H356.172V48.048C355.596 49.032 354.744 49.8 353.616 50.352C352.512 50.904 351.192 51.18 349.656 51.18C347.544 51.18 345.864 50.676 344.616 49.668C343.368 48.66 342.744 47.328 342.744 45.672C342.744 44.064 343.32 42.768 344.472 41.784C345.648 40.8 347.508 40.308 350.052 40.308H356.064V39.156C356.064 37.524 355.608 36.288 354.696 35.448C353.784 34.584 352.452 34.152 350.7 34.152C349.5 34.152 348.348 34.356 347.244 34.764C346.14 35.148 345.192 35.688 344.4 36.384L343.248 34.476C344.208 33.66 345.36 33.036 346.704 32.604C348.048 32.148 349.464 31.92 350.952 31.92ZM350.052 49.164C351.492 49.164 352.728 48.84 353.76 48.192C354.792 47.52 355.56 46.56 356.064 45.312V42.216H350.124C346.884 42.216 345.264 43.344 345.264 45.6C345.264 46.704 345.684 47.58 346.524 48.228C347.364 48.852 348.54 49.164 350.052 49.164ZM386.333 24.288V51H383.885V47.256C383.117 48.528 382.097 49.5 380.825 50.172C379.577 50.844 378.161 51.18 376.577 51.18C374.801 51.18 373.193 50.772 371.753 49.956C370.313 49.14 369.185 48 368.369 46.536C367.553 45.072 367.145 43.404 367.145 41.532C367.145 39.66 367.553 37.992 368.369 36.528C369.185 35.064 370.313 33.936 371.753 33.144C373.193 32.328 374.801 31.92 376.577 31.92C378.113 31.92 379.493 32.244 380.717 32.892C381.965 33.516 382.985 34.44 383.777 35.664V24.288H386.333ZM376.793 48.912C378.113 48.912 379.301 48.612 380.357 48.012C381.437 47.388 382.277 46.512 382.877 45.384C383.501 44.256 383.813 42.972 383.813 41.532C383.813 40.092 383.501 38.808 382.877 37.68C382.277 36.552 381.437 35.688 380.357 35.088C379.301 34.464 378.113 34.152 376.793 34.152C375.449 34.152 374.237 34.464 373.157 35.088C372.101 35.688 371.261 36.552 370.637 37.68C370.037 38.808 369.737 40.092 369.737 41.532C369.737 42.972 370.037 44.256 370.637 45.384C371.261 46.512 372.101 47.388 373.157 48.012C374.237 48.612 375.449 48.912 376.793 48.912ZM396.871 32.064H399.427V51H396.871V32.064ZM398.167 27.924C397.639 27.924 397.195 27.744 396.835 27.384C396.475 27.024 396.295 26.592 396.295 26.088C396.295 25.608 396.475 25.188 396.835 24.828C397.195 24.468 397.639 24.288 398.167 24.288C398.695 24.288 399.139 24.468 399.499 24.828C399.859 25.164 400.039 25.572 400.039 26.052C400.039 26.58 399.859 27.024 399.499 27.384C399.139 27.744 398.695 27.924 398.167 27.924ZM417.699 51.18C415.875 51.18 414.231 50.772 412.767 49.956C411.303 49.116 410.151 47.964 409.311 46.5C408.471 45.036 408.051 43.38 408.051 41.532C408.051 39.684 408.471 38.028 409.311 36.564C410.151 35.1 411.303 33.96 412.767 33.144C414.231 32.328 415.875 31.92 417.699 31.92C419.523 31.92 421.167 32.328 422.631 33.144C424.095 33.96 425.235 35.1 426.051 36.564C426.891 38.028 427.311 39.684 427.311 41.532C427.311 43.38 426.891 45.036 426.051 46.5C425.235 47.964 424.095 49.116 422.631 49.956C421.167 50.772 419.523 51.18 417.699 51.18ZM417.699 48.912C419.043 48.912 420.243 48.612 421.299 48.012C422.379 47.388 423.219 46.512 423.819 45.384C424.419 44.256 424.719 42.972 424.719 41.532C424.719 40.092 424.419 38.808 423.819 37.68C423.219 36.552 422.379 35.688 421.299 35.088C420.243 34.464 419.043 34.152 417.699 34.152C416.355 34.152 415.143 34.464 414.063 35.088C413.007 35.688 412.167 36.552 411.543 37.68C410.943 38.808 410.643 40.092 410.643 41.532C410.643 42.972 410.943 44.256 411.543 45.384C412.167 46.512 413.007 47.388 414.063 48.012C415.143 48.612 416.355 48.912 417.699 48.912ZM454.048 30.48V37.14H465.712V41.82H454.048V51H448.216V25.8H467.26V30.48H454.048ZM473.88 31.632H479.496V51H473.88V31.632ZM476.688 28.932C475.656 28.932 474.816 28.632 474.168 28.032C473.52 27.432 473.196 26.688 473.196 25.8C473.196 24.912 473.52 24.168 474.168 23.568C474.816 22.968 475.656 22.668 476.688 22.668C477.72 22.668 478.56 22.956 479.208 23.532C479.856 24.108 480.18 24.828 480.18 25.692C480.18 26.628 479.856 27.408 479.208 28.032C478.56 28.632 477.72 28.932 476.688 28.932ZM499.9 31.344C502.3 31.344 504.232 32.064 505.696 33.504C507.184 34.944 507.928 37.08 507.928 39.912V51H502.312V40.776C502.312 39.24 501.976 38.1 501.304 37.356C500.632 36.588 499.66 36.204 498.388 36.204C496.972 36.204 495.844 36.648 495.004 37.536C494.164 38.4 493.744 39.696 493.744 41.424V51H488.128V31.632H493.492V33.9C494.236 33.084 495.16 32.46 496.264 32.028C497.368 31.572 498.58 31.344 499.9 31.344ZM536.378 24.288V51H531.014V48.768C529.622 50.448 527.606 51.288 524.966 51.288C523.142 51.288 521.486 50.88 519.998 50.064C518.534 49.248 517.382 48.084 516.542 46.572C515.702 45.06 515.282 43.308 515.282 41.316C515.282 39.324 515.702 37.572 516.542 36.06C517.382 34.548 518.534 33.384 519.998 32.568C521.486 31.752 523.142 31.344 524.966 31.344C527.438 31.344 529.37 32.124 530.762 33.684V24.288H536.378ZM525.938 46.68C527.354 46.68 528.53 46.2 529.466 45.24C530.402 44.256 530.87 42.948 530.87 41.316C530.87 39.684 530.402 38.388 529.466 37.428C528.53 36.444 527.354 35.952 525.938 35.952C524.498 35.952 523.31 36.444 522.374 37.428C521.438 38.388 520.97 39.684 520.97 41.316C520.97 42.948 521.438 44.256 522.374 45.24C523.31 46.2 524.498 46.68 525.938 46.68ZM563.968 41.388C563.968 41.46 563.932 41.964 563.86 42.9H549.208C549.472 44.1 550.096 45.048 551.08 45.744C552.064 46.44 553.288 46.788 554.752 46.788C555.76 46.788 556.648 46.644 557.416 46.356C558.208 46.044 558.94 45.564 559.612 44.916L562.6 48.156C560.776 50.244 558.112 51.288 554.608 51.288C552.424 51.288 550.492 50.868 548.812 50.028C547.132 49.164 545.836 47.976 544.924 46.464C544.012 44.952 543.556 43.236 543.556 41.316C543.556 39.42 544 37.716 544.888 36.204C545.8 34.668 547.036 33.48 548.596 32.64C550.18 31.776 551.944 31.344 553.888 31.344C555.784 31.344 557.5 31.752 559.036 32.568C560.572 33.384 561.772 34.56 562.636 36.096C563.524 37.608 563.968 39.372 563.968 41.388ZM553.924 35.592C552.652 35.592 551.584 35.952 550.72 36.672C549.856 37.392 549.328 38.376 549.136 39.624H558.676C558.484 38.4 557.956 37.428 557.092 36.708C556.228 35.964 555.172 35.592 553.924 35.592ZM576.491 34.188C577.163 33.252 578.063 32.544 579.191 32.064C580.343 31.584 581.663 31.344 583.151 31.344V36.528C582.527 36.48 582.107 36.456 581.891 36.456C580.283 36.456 579.023 36.912 578.111 37.824C577.199 38.712 576.743 40.056 576.743 41.856V51H571.127V31.632H576.491V34.188Z" fill="white"/>
</g>
<g filter="url(#filter1_d)">
<path d="M93.994 11.6397C92.8899 7.45168 89.6369 4.15332 85.5066 3.03398C78.0201 1 48 1 48 1C48 1 17.9801 1 10.4934 3.03398C6.3631 4.1535 3.11009 7.45168 2.00601 11.6397C0 19.2307 0 35.0687 0 35.0687C0 35.0687 0 50.9067 2.00601 58.4977C3.11009 62.6857 6.3631 65.8467 10.4934 66.966C17.9801 69 48 69 48 69C48 69 78.0199 69 85.5066 66.966C89.6369 65.8467 92.8899 62.6857 93.994 58.4977C96 50.9067 96 35.0687 96 35.0687C96 35.0687 96 19.2307 93.994 11.6397Z" fill="#D72523"/>
<path d="M93.994 11.6397C92.8899 7.45168 89.6369 4.15332 85.5066 3.03398C78.0201 1 48 1 48 1C48 1 17.9801 1 10.4934 3.03398C6.3631 4.1535 3.11009 7.45168 2.00601 11.6397C0 19.2307 0 35.0687 0 35.0687C0 35.0687 0 50.9067 2.00601 58.4977C3.11009 62.6857 6.3631 65.8467 10.4934 66.966C17.9801 69 48 69 48 69C48 69 78.0199 69 85.5066 66.966C89.6369 65.8467 92.8899 62.6857 93.994 58.4977C96 50.9067 96 35.0687 96 35.0687C96 35.0687 96 19.2307 93.994 11.6397Z" fill="url(#paint0_linear)"/>
<path d="M93.7523 11.7034L93.7523 11.7036C94.7479 15.471 95.2488 21.3044 95.4996 26.2136C95.6248 28.6645 95.6874 30.8788 95.7187 32.4803C95.7344 33.281 95.7422 33.9284 95.7461 34.3755C95.748 34.5991 95.749 34.7725 95.7495 34.89L95.7499 35.0235L95.75 35.0574L95.75 35.0659V35.068V35.0686C95.75 35.0686 95.75 35.0687 95.7981 35.0687C95.8334 35.0687 95.8944 35.0687 96 35.0687C95.75 35.0687 95.75 35.0688 95.75 35.0689V35.0694V35.0715L95.75 35.08L95.7499 35.1139L95.7495 35.2474C95.749 35.3649 95.748 35.5383 95.7461 35.7619C95.7422 36.209 95.7344 36.8564 95.7187 37.6571C95.6874 39.2587 95.6248 41.4729 95.4996 43.9238C95.2488 48.8331 94.7479 54.6664 93.7523 58.4338L93.7523 58.434C92.6718 62.5325 89.4883 65.6279 85.4412 66.7247L85.441 66.7248C83.5956 67.2261 80.3384 67.6064 76.4693 67.8926C72.6073 68.1782 68.157 68.3688 63.9382 68.4959C59.7199 68.6229 55.7352 68.6865 52.8049 68.7182C51.3398 68.7341 50.1384 68.7421 49.3033 68.746C48.8858 68.748 48.5599 68.749 48.3384 68.7495L48.0861 68.7499L48.0216 68.75L48.0054 68.75H48.0013H48.0003C48.0001 68.75 48 68.75 48 69C48 68.75 47.9999 68.75 47.9997 68.75H47.9987H47.9946L47.9783 68.75L47.9139 68.7499L47.6616 68.7495C47.4401 68.749 47.1142 68.748 46.6966 68.746C45.8616 68.7421 44.6602 68.7341 43.1951 68.7182C40.2648 68.6865 36.2801 68.6229 32.0617 68.4959C27.843 68.3688 23.3927 68.1782 19.5307 67.8926C15.6616 67.6064 12.4043 67.2261 10.559 66.7248L10.5588 66.7247C6.51173 65.6279 3.32824 62.5325 2.24775 58.434L2.24772 58.4338C1.25213 54.6664 0.751222 48.8331 0.500426 43.9238C0.375217 41.4729 0.312603 39.2587 0.281296 37.6571C0.265644 36.8564 0.257819 36.209 0.253908 35.7619C0.251953 35.5383 0.250976 35.3649 0.250488 35.2474L0.250061 35.1139L0.250008 35.08L0.250001 35.0715L0.25 35.0694L0.25 35.0689C0.25 35.0688 0.25 35.0687 0 35.0687C0.25 35.0687 0.25 35.0687 0.25 35.0686L0.25 35.068L0.250001 35.0659L0.250008 35.0574L0.250061 35.0235L0.250488 34.89C0.250976 34.7725 0.251953 34.5991 0.253908 34.3755C0.257819 33.9284 0.265644 33.281 0.281296 32.4803C0.312603 30.8788 0.375217 28.6645 0.500426 26.2136C0.751222 21.3044 1.25213 15.471 2.24772 11.7036L2.24775 11.7034C3.32938 7.60058 6.51608 4.37105 10.5588 3.27527L10.559 3.27523C12.4043 2.77388 15.6616 2.39358 19.5307 2.1074C23.3927 1.82176 27.843 1.63121 32.0617 1.50413C36.2801 1.37707 40.2648 1.31354 43.1951 1.28177C44.6602 1.26588 45.8616 1.25794 46.6966 1.25397C47.1142 1.25198 47.4401 1.25099 47.6616 1.2505L47.9139 1.25006L47.9783 1.25001L47.9946 1.25L47.9987 1.25L47.9997 1.25C47.9999 1.25 48 1.25 48 1C48 1.25 48.0001 1.25 48.0003 1.25L48.0013 1.25L48.0054 1.25L48.0216 1.25001L48.0861 1.25006L48.3384 1.2505C48.5599 1.25099 48.8858 1.25198 49.3034 1.25397C50.1384 1.25794 51.3398 1.26588 52.8049 1.28177C55.7352 1.31354 59.72 1.37707 63.9383 1.50413C68.1571 1.63121 72.6074 1.82176 76.4694 2.1074C80.3385 2.39358 83.5957 2.77388 85.441 3.27523L85.4412 3.27528C89.4839 4.37088 92.6706 7.60058 93.7523 11.7034Z" stroke="black" stroke-width="0.5"/>
</g>
<path d="M69.7304 53.8705L69.6661 53.9516H69.7696H72.1256C73.0378 53.9516 73.9068 54.303 74.5477 54.9351L88.9583 69.1486C90.2829 70.4691 90.2829 72.6042 88.9441 73.9248L84.8535 77.9593L84.8533 77.9595C83.5287 79.2801 81.3631 79.2803 80.0238 77.9593L65.613 63.7457C64.9721 63.1136 64.6161 62.2568 64.6161 61.3577V59.0339V58.9322L64.5355 58.9943C59.4417 62.9225 53.0347 65.2567 46.0647 65.2567C29.4838 65.2567 16.05 52.0057 16.05 35.6534C16.05 19.301 29.4838 6.05 46.0647 6.05C62.6456 6.05 76.0794 19.301 76.0794 35.6534C76.0794 42.5275 73.713 48.8465 69.7304 53.8705ZM27.5133 35.6534C27.5133 45.7752 35.8187 53.9516 46.0647 53.9516C56.3252 53.9516 64.6161 45.7609 64.6161 35.6534C64.6161 25.5315 56.3107 17.3551 46.0647 17.3551C35.8041 17.3551 27.5133 25.5458 27.5133 35.6534Z" fill="#212121"/>
<path d="M69.7304 53.8705L69.6661 53.9516H69.7696H72.1256C73.0378 53.9516 73.9068 54.303 74.5477 54.9351L88.9583 69.1486C90.2829 70.4691 90.2829 72.6042 88.9441 73.9248L84.8535 77.9593L84.8533 77.9595C83.5287 79.2801 81.3631 79.2803 80.0238 77.9593L65.613 63.7457C64.9721 63.1136 64.6161 62.2568 64.6161 61.3577V59.0339V58.9322L64.5355 58.9943C59.4417 62.9225 53.0347 65.2567 46.0647 65.2567C29.4838 65.2567 16.05 52.0057 16.05 35.6534C16.05 19.301 29.4838 6.05 46.0647 6.05C62.6456 6.05 76.0794 19.301 76.0794 35.6534C76.0794 42.5275 73.713 48.8465 69.7304 53.8705ZM27.5133 35.6534C27.5133 45.7752 35.8187 53.9516 46.0647 53.9516C56.3252 53.9516 64.6161 45.7609 64.6161 35.6534C64.6161 25.5315 56.3107 17.3551 46.0647 17.3551C35.8041 17.3551 27.5133 25.5458 27.5133 35.6534Z" fill="url(#paint1_linear)"/>
<path d="M69.7304 53.8705L69.6661 53.9516H69.7696H72.1256C73.0378 53.9516 73.9068 54.303 74.5477 54.9351L88.9583 69.1486C90.2829 70.4691 90.2829 72.6042 88.9441 73.9248L84.8535 77.9593L84.8533 77.9595C83.5287 79.2801 81.3631 79.2803 80.0238 77.9593L65.613 63.7457C64.9721 63.1136 64.6161 62.2568 64.6161 61.3577V59.0339V58.9322L64.5355 58.9943C59.4417 62.9225 53.0347 65.2567 46.0647 65.2567C29.4838 65.2567 16.05 52.0057 16.05 35.6534C16.05 19.301 29.4838 6.05 46.0647 6.05C62.6456 6.05 76.0794 19.301 76.0794 35.6534C76.0794 42.5275 73.713 48.8465 69.7304 53.8705ZM27.5133 35.6534C27.5133 45.7752 35.8187 53.9516 46.0647 53.9516C56.3252 53.9516 64.6161 45.7609 64.6161 35.6534C64.6161 25.5315 56.3107 17.3551 46.0647 17.3551C35.8041 17.3551 27.5133 25.5458 27.5133 35.6534Z" stroke="black" stroke-width="0.1"/>
<path d="M31.5714 49.0855L29.4162 44.388L27.381 46.4271L31.5714 49.0855Z" fill="#212121"/>
<g clip-path="url(#clip1)">
<path d="M58.9358 17.8263L58.9358 17.8263L58.9401 17.825C59.2069 17.7409 59.4897 17.7208 59.7657 17.7663C60.0417 17.8118 60.303 17.9217 60.5287 18.087C60.7543 18.2523 60.9379 18.4684 61.0645 18.7178C61.1911 18.9673 61.2572 19.243 61.2575 19.5227V41.8727C61.2575 42.8853 60.6416 43.8326 59.5831 44.5382C58.5264 45.2426 57.0523 45.6864 55.4123 45.6864C53.7723 45.6864 52.2983 45.2425 51.2415 44.538C50.183 43.8323 49.5672 42.885 49.5672 41.8727C49.5672 40.8604 50.183 39.9131 51.2415 39.2074C52.2981 38.503 53.7719 38.0591 55.4116 38.059C56.0766 38.0627 56.7388 38.1441 57.3849 38.3014L57.694 38.3768V38.0585V26.3368V26.003L57.3737 26.0969L41.12 30.859L40.9403 30.9116V31.0989V45.9364C40.9403 46.9487 40.3244 47.896 39.2659 48.6016C38.2092 49.3061 36.7352 49.75 35.0951 49.75C33.4551 49.75 31.9811 49.3061 30.9244 48.6016C29.8659 47.896 29.25 46.9487 29.25 45.9364C29.25 44.924 29.8659 43.9767 30.9244 43.2711C31.9809 42.5667 33.4547 42.1228 35.0944 42.1227C35.7594 42.1265 36.4217 42.2077 37.0679 42.3645L37.3769 42.4395V42.1216V25.5235C37.3771 25.1445 37.4982 24.7753 37.7226 24.4698C37.9466 24.1648 38.2618 23.9391 38.6226 23.8253L58.9358 17.8263Z" fill="white"/>
<path d="M58.9358 17.8263L58.9358 17.8263L58.9401 17.825C59.2069 17.7409 59.4897 17.7208 59.7657 17.7663C60.0417 17.8118 60.303 17.9217 60.5287 18.087C60.7543 18.2523 60.9379 18.4684 61.0645 18.7178C61.1911 18.9673 61.2572 19.243 61.2575 19.5227V41.8727C61.2575 42.8853 60.6416 43.8326 59.5831 44.5382C58.5264 45.2426 57.0523 45.6864 55.4123 45.6864C53.7723 45.6864 52.2983 45.2425 51.2415 44.538C50.183 43.8323 49.5672 42.885 49.5672 41.8727C49.5672 40.8604 50.183 39.9131 51.2415 39.2074C52.2981 38.503 53.7719 38.0591 55.4116 38.059C56.0766 38.0627 56.7388 38.1441 57.3849 38.3014L57.694 38.3768V38.0585V26.3368V26.003L57.3737 26.0969L41.12 30.859L40.9403 30.9116V31.0989V45.9364C40.9403 46.9487 40.3244 47.896 39.2659 48.6016C38.2092 49.3061 36.7352 49.75 35.0951 49.75C33.4551 49.75 31.9811 49.3061 30.9244 48.6016C29.8659 47.896 29.25 46.9487 29.25 45.9364C29.25 44.924 29.8659 43.9767 30.9244 43.2711C31.9809 42.5667 33.4547 42.1228 35.0944 42.1227C35.7594 42.1265 36.4217 42.2077 37.0679 42.3645L37.3769 42.4395V42.1216V25.5235C37.3771 25.1445 37.4982 24.7753 37.7226 24.4698C37.9466 24.1648 38.2618 23.9391 38.6226 23.8253L58.9358 17.8263Z" fill="url(#paint2_linear)"/>
<path d="M58.9358 17.8263L58.9358 17.8263L58.9401 17.825C59.2069 17.7409 59.4897 17.7208 59.7657 17.7663C60.0417 17.8118 60.303 17.9217 60.5287 18.087C60.7543 18.2523 60.9379 18.4684 61.0645 18.7178C61.1911 18.9673 61.2572 19.243 61.2575 19.5227V41.8727C61.2575 42.8853 60.6416 43.8326 59.5831 44.5382C58.5264 45.2426 57.0523 45.6864 55.4123 45.6864C53.7723 45.6864 52.2983 45.2425 51.2415 44.538C50.183 43.8323 49.5672 42.885 49.5672 41.8727C49.5672 40.8604 50.183 39.9131 51.2415 39.2074C52.2981 38.503 53.7719 38.0591 55.4116 38.059C56.0766 38.0627 56.7388 38.1441 57.3849 38.3014L57.694 38.3768V38.0585V26.3368V26.003L57.3737 26.0969L41.12 30.859L40.9403 30.9116V31.0989V45.9364C40.9403 46.9487 40.3244 47.896 39.2659 48.6016C38.2092 49.3061 36.7352 49.75 35.0951 49.75C33.4551 49.75 31.9811 49.3061 30.9244 48.6016C29.8659 47.896 29.25 46.9487 29.25 45.9364C29.25 44.924 29.8659 43.9767 30.9244 43.2711C31.9809 42.5667 33.4547 42.1228 35.0944 42.1227C35.7594 42.1265 36.4217 42.2077 37.0679 42.3645L37.3769 42.4395V42.1216V25.5235C37.3771 25.1445 37.4982 24.7753 37.7226 24.4698C37.9466 24.1648 38.2618 23.9391 38.6226 23.8253L58.9358 17.8263Z" stroke="black" stroke-width="0.5"/>
<path d="M36 53L28.5 43L26 49.2573L36 53Z" fill="#212121"/>
<path d="M36.3413 51.8033L31.345 46.772L30.3946 50.7938L36.3413 51.8033Z" fill="#212121"/>
<path d="M32.917 48.9143L29.3974 45.1443L28.107 47.7269L32.917 48.9143Z" fill="#212121"/>
<path d="M31.9164 47.7322L29.1723 44.0064L28.0073 46.3911L31.9164 47.7322Z" fill="#212121"/>
<path d="M30.5153 46.6913L29.4549 45.0025L29.0033 46.0845L30.5153 46.6913Z" fill="#212121"/>
<path d="M33.5 49L32.0521 47.4612L31.0086 48.0829L33.5 49Z" fill="#212121"/>
<path d="M32.591 48.1311L30.565 45.8017L29.1753 46.9897L32.591 48.1311Z" fill="#212121"/>
<path d="M32.1828 47.8225L30.0453 44.9152L28.709 46.7016L32.1828 47.8225Z" fill="#212121"/>
<path d="M29 43L29.9333 44.7297L30.8667 46.027L31.3333 46.6757L32.9667 48.4054L34.6 49.9189L36 51" stroke="black" stroke-width="0.1"/>
</g>
<path d="M32.6244 48.6363L27.8466 41.6768L25.2051 46.3056L32.6244 48.6363Z" fill="#212121"/>
</g>
<defs>
<filter id="filter0_d" x="118.036" y="20.668" width="471.115" height="36.62" filterUnits="userSpaceOnUse" color-interpolation-filters="sRGB">
<feFlood flood-opacity="0" result="BackgroundImageFix"/>
<feColorMatrix in="SourceAlpha" type="matrix" values="0 0 0 0 0 0 0 0 0 0 0 0 0 0 0 0 0 0 127 0"/>
<feOffset dx="2" dy="2"/>
<feGaussianBlur stdDeviation="2"/>
<feColorMatrix type="matrix" values="0 0 0 0 0 0 0 0 0 0 0 0 0 0 0 0 0 0 0.25 0"/>
<feBlend mode="normal" in2="BackgroundImageFix" result="effect1_dropShadow"/>
<feBlend mode="normal" in="SourceGraphic" in2="effect1_dropShadow" result="shape"/>
</filter>
<filter id="filter1_d" x="-4" y="1" width="104" height="76" filterUnits="userSpaceOnUse" color-interpolation-filters="sRGB">
<feFlood flood-opacity="0" result="BackgroundImageFix"/>
<feColorMatrix in="SourceAlpha" type="matrix" values="0 0 0 0 0 0 0 0 0 0 0 0 0 0 0 0 0 0 127 0"/>
<feOffset dy="4"/>
<feGaussianBlur stdDeviation="2"/>
<feColorMatrix type="matrix" values="0 0 0 0 0 0 0 0 0 0 0 0 0 0 0 0 0 0 0.25 0"/>
<feBlend mode="normal" in2="BackgroundImageFix" result="effect1_dropShadow"/>
<feBlend mode="normal" in="SourceGraphic" in2="effect1_dropShadow" result="shape"/>
</filter>
<linearGradient id="paint0_linear" x1="66.9323" y1="-115.599" x2="37.6115" y2="54.3575" gradientUnits="userSpaceOnUse">
<stop stop-color="white"/>
<stop offset="0.0001" stop-color="white" stop-opacity="0.927083"/>
<stop offset="0.838542" stop-color="white" stop-opacity="0"/>
</linearGradient>
<linearGradient id="paint1_linear" x1="60.3229" y1="-56.3542" x2="28.5616" y2="34.4029" gradientUnits="userSpaceOnUse">
<stop stop-color="white"/>
<stop offset="1" stop-color="white" stop-opacity="0"/>
</linearGradient>
<linearGradient id="paint2_linear" x1="75.3483" y1="1.79776" x2="45.3146" y2="58.5281" gradientUnits="userSpaceOnUse">
<stop stop-color="white"/>
<stop offset="1" stop-color="white" stop-opacity="0"/>
</linearGradient>
<clipPath id="clip0">
<rect width="584" height="80" fill="white"/>
</clipPath>
<clipPath id="clip1">
<rect width="33" height="33" fill="white" transform="translate(29 17)"/>
</clipPath>
</defs>
</svg>
