<svg width="677" height="80" viewBox="0 0 677 80" fill="none" xmlns="http://www.w3.org/2000/svg">
<g clip-path="url(#clip0)">
<g filter="url(#filter0_d)">
<path d="M122.357 40.6465H116.346V51H112.953V25.4062H121.426C124.309 25.4062 126.523 26.0625 128.07 27.375C129.629 28.6875 130.408 30.5977 130.408 33.1055C130.408 34.6992 129.975 36.0879 129.107 37.2715C128.252 38.4551 127.057 39.3398 125.521 39.9258L131.533 50.7891V51H127.912L122.357 40.6465ZM116.346 37.8867H121.531C123.207 37.8867 124.537 37.4531 125.521 36.5859C126.518 35.7188 127.016 34.5586 127.016 33.1055C127.016 31.5234 126.541 30.3105 125.592 29.4668C124.654 28.623 123.295 28.1953 121.514 28.1836H116.346V37.8867ZM149.807 51C149.619 50.625 149.467 49.957 149.35 48.9961C147.838 50.5664 146.033 51.3516 143.936 51.3516C142.061 51.3516 140.52 50.8242 139.313 49.7695C138.117 48.7031 137.52 47.3555 137.52 45.7266C137.52 43.7461 138.27 42.2109 139.77 41.1211C141.281 40.0195 143.402 39.4688 146.133 39.4688H149.297V37.9746C149.297 36.8379 148.957 35.9355 148.277 35.2676C147.598 34.5879 146.596 34.248 145.272 34.248C144.111 34.248 143.139 34.541 142.354 35.127C141.568 35.7129 141.176 36.4219 141.176 37.2539H137.906C137.906 36.3047 138.24 35.3906 138.908 34.5117C139.588 33.6211 140.502 32.918 141.65 32.4023C142.811 31.8867 144.082 31.6289 145.465 31.6289C147.656 31.6289 149.373 32.1797 150.615 33.2812C151.858 34.3711 152.502 35.877 152.549 37.7988V46.5527C152.549 48.2988 152.772 49.6875 153.217 50.7188V51H149.807ZM144.41 48.5215C145.43 48.5215 146.397 48.2578 147.311 47.7305C148.225 47.2031 148.887 46.5176 149.297 45.6738V41.7715H146.748C142.764 41.7715 140.772 42.9375 140.772 45.2695C140.772 46.2891 141.111 47.0859 141.791 47.6602C142.471 48.2344 143.344 48.5215 144.41 48.5215ZM160.276 41.332C160.276 38.4141 160.967 36.0703 162.35 34.3008C163.733 32.5195 165.543 31.6289 167.781 31.6289C170.008 31.6289 171.772 32.3906 173.072 33.9141V24H176.324V51H173.336L173.178 48.9609C171.877 50.5547 170.067 51.3516 167.746 51.3516C165.543 51.3516 163.744 50.4492 162.35 48.6445C160.967 46.8398 160.276 44.4844 160.276 41.5781V41.332ZM163.528 41.7012C163.528 43.8574 163.973 45.5449 164.863 46.7637C165.754 47.9824 166.985 48.5918 168.555 48.5918C170.617 48.5918 172.123 47.666 173.072 45.8145V37.0781C172.1 35.2852 170.606 34.3887 168.59 34.3887C166.996 34.3887 165.754 35.0039 164.863 36.2344C163.973 37.4648 163.528 39.2871 163.528 41.7012ZM188.34 51H185.088V31.9805H188.34V51ZM184.824 26.9355C184.824 26.4082 184.983 25.9629 185.299 25.5996C185.627 25.2363 186.108 25.0547 186.74 25.0547C187.373 25.0547 187.854 25.2363 188.182 25.5996C188.51 25.9629 188.674 26.4082 188.674 26.9355C188.674 27.4629 188.51 27.9023 188.182 28.2539C187.854 28.6055 187.373 28.7812 186.74 28.7812C186.108 28.7812 185.627 28.6055 185.299 28.2539C184.983 27.9023 184.824 27.4629 184.824 26.9355ZM196.119 41.3145C196.119 39.4512 196.483 37.7754 197.209 36.2871C197.948 34.7988 198.967 33.6504 200.268 32.8418C201.58 32.0332 203.075 31.6289 204.75 31.6289C207.34 31.6289 209.432 32.5254 211.026 34.3184C212.631 36.1113 213.434 38.4961 213.434 41.4727V41.7012C213.434 43.5527 213.076 45.2168 212.362 46.6934C211.659 48.1582 210.645 49.3008 209.321 50.1211C208.008 50.9414 206.496 51.3516 204.785 51.3516C202.207 51.3516 200.116 50.4551 198.51 48.6621C196.916 46.8691 196.119 44.4961 196.119 41.543V41.3145ZM199.389 41.7012C199.389 43.8105 199.875 45.5039 200.848 46.7812C201.832 48.0586 203.145 48.6973 204.785 48.6973C206.438 48.6973 207.75 48.0527 208.723 46.7637C209.696 45.4629 210.182 43.6465 210.182 41.3145C210.182 39.2285 209.684 37.541 208.688 36.252C207.703 34.9512 206.391 34.3008 204.75 34.3008C203.145 34.3008 201.85 34.9395 200.866 36.2168C199.881 37.4941 199.389 39.3223 199.389 41.7012ZM248.504 40.541H238.379V51H233.106V25.4062H249.77V29.6777H238.379V36.2871H248.504V40.541ZM261.276 51H256.178V31.9805H261.276V51ZM255.879 27.0586C255.879 26.2969 256.131 25.6699 256.635 25.1777C257.151 24.6855 257.848 24.4395 258.727 24.4395C259.594 24.4395 260.286 24.6855 260.801 25.1777C261.317 25.6699 261.575 26.2969 261.575 27.0586C261.575 27.832 261.311 28.4648 260.784 28.957C260.268 29.4492 259.583 29.6953 258.727 29.6953C257.872 29.6953 257.18 29.4492 256.653 28.957C256.137 28.4648 255.879 27.832 255.879 27.0586ZM273.573 31.9805L273.731 34.1777C275.09 32.4785 276.913 31.6289 279.198 31.6289C281.214 31.6289 282.714 32.2207 283.698 33.4043C284.682 34.5879 285.186 36.3574 285.21 38.7129V51H280.13V38.8359C280.13 37.7578 279.895 36.9785 279.426 36.498C278.958 36.0059 278.178 35.7598 277.089 35.7598C275.659 35.7598 274.587 36.3691 273.872 37.5879V51H268.792V31.9805H273.573ZM291.706 41.3496C291.706 38.3848 292.368 36.0234 293.692 34.2656C295.028 32.5078 296.85 31.6289 299.159 31.6289C301.01 31.6289 302.54 32.3203 303.747 33.7031V24H308.844V51H304.257L304.01 48.9785C302.745 50.5605 301.116 51.3516 299.124 51.3516C296.885 51.3516 295.087 50.4727 293.727 48.7148C292.38 46.9453 291.706 44.4902 291.706 41.3496ZM296.786 41.7188C296.786 43.5 297.096 44.8652 297.717 45.8145C298.339 46.7637 299.241 47.2383 300.425 47.2383C301.995 47.2383 303.102 46.5762 303.747 45.252V37.7461C303.114 36.4219 302.018 35.7598 300.46 35.7598C298.01 35.7598 296.786 37.7461 296.786 41.7188ZM324.956 51.3516C322.167 51.3516 319.893 50.4961 318.136 48.7852C316.389 47.0742 315.516 44.7949 315.516 41.9473V41.4551C315.516 39.5449 315.886 37.8398 316.624 36.3398C317.362 34.8281 318.405 33.668 319.753 32.8594C321.112 32.0391 322.659 31.6289 324.393 31.6289C326.995 31.6289 329.04 32.4492 330.528 34.0898C332.028 35.7305 332.778 38.0566 332.778 41.0684V43.1426H320.667C320.831 44.3848 321.323 45.3809 322.143 46.1309C322.975 46.8809 324.024 47.2559 325.29 47.2559C327.247 47.2559 328.776 46.5469 329.878 45.1289L332.374 47.9238C331.612 49.002 330.581 49.8457 329.28 50.4551C327.979 51.0527 326.538 51.3516 324.956 51.3516ZM324.376 35.7422C323.368 35.7422 322.548 36.082 321.915 36.7617C321.294 37.4414 320.895 38.4141 320.72 39.6797H327.786V39.2754C327.762 38.1504 327.458 37.2832 326.872 36.6738C326.286 36.0527 325.454 35.7422 324.376 35.7422ZM349.786 36.7441C349.095 36.6504 348.485 36.6035 347.958 36.6035C346.036 36.6035 344.776 37.2539 344.179 38.5547V51H339.099V31.9805H343.897L344.038 34.248C345.057 32.502 346.47 31.6289 348.274 31.6289C348.837 31.6289 349.364 31.7051 349.856 31.8574L349.786 36.7441ZM380.339 41.5811H371.389V51H368.576V29.6719H381.789V31.9863H371.389V39.2812H380.339V41.5811ZM386.543 42.9287C386.543 41.376 386.846 39.9795 387.452 38.7393C388.067 37.499 388.916 36.542 390 35.8682C391.094 35.1943 392.339 34.8574 393.736 34.8574C395.894 34.8574 397.637 35.6045 398.965 37.0986C400.303 38.5928 400.972 40.5801 400.972 43.0605V43.251C400.972 44.7939 400.674 46.1807 400.079 47.4111C399.493 48.6318 398.648 49.584 397.544 50.2676C396.451 50.9512 395.191 51.293 393.765 51.293C391.617 51.293 389.873 50.5459 388.536 49.0518C387.207 47.5576 386.543 45.5801 386.543 43.1191V42.9287ZM389.268 43.251C389.268 45.0088 389.673 46.4199 390.484 47.4844C391.304 48.5488 392.398 49.0811 393.765 49.0811C395.142 49.0811 396.236 48.5439 397.046 47.4697C397.857 46.3857 398.262 44.8721 398.262 42.9287C398.262 41.1904 397.847 39.7842 397.017 38.71C396.197 37.626 395.103 37.084 393.736 37.084C392.398 37.084 391.319 37.6162 390.498 38.6807C389.678 39.7451 389.268 41.2686 389.268 43.251ZM414.882 37.582C414.472 37.5137 414.027 37.4795 413.549 37.4795C411.771 37.4795 410.565 38.2363 409.931 39.75V51H407.221V35.1504H409.857L409.901 36.9814C410.79 35.5654 412.05 34.8574 413.681 34.8574C414.208 34.8574 414.608 34.9258 414.882 35.0625V37.582ZM437.457 40.3799L443.023 29.6719H446.216L438.863 43.0459V51H436.05V43.0459L428.697 29.6719H431.92L437.457 40.3799ZM449.711 42.9287C449.711 41.376 450.014 39.9795 450.619 38.7393C451.234 37.499 452.084 36.542 453.168 35.8682C454.262 35.1943 455.507 34.8574 456.903 34.8574C459.062 34.8574 460.805 35.6045 462.133 37.0986C463.471 38.5928 464.14 40.5801 464.14 43.0605V43.251C464.14 44.7939 463.842 46.1807 463.246 47.4111C462.66 48.6318 461.815 49.584 460.712 50.2676C459.618 50.9512 458.358 51.293 456.933 51.293C454.784 51.293 453.041 50.5459 451.703 49.0518C450.375 47.5576 449.711 45.5801 449.711 43.1191V42.9287ZM452.436 43.251C452.436 45.0088 452.841 46.4199 453.651 47.4844C454.472 48.5488 455.565 49.0811 456.933 49.0811C458.31 49.0811 459.403 48.5439 460.214 47.4697C461.024 46.3857 461.43 44.8721 461.43 42.9287C461.43 41.1904 461.015 39.7842 460.185 38.71C459.364 37.626 458.271 37.084 456.903 37.084C455.565 37.084 454.486 37.6162 453.666 38.6807C452.846 39.7451 452.436 41.2686 452.436 43.251ZM480.173 49.4326C479.119 50.6729 477.571 51.293 475.53 51.293C473.84 51.293 472.551 50.8047 471.663 49.8281C470.784 48.8418 470.339 47.3867 470.33 45.4629V35.1504H473.039V45.3896C473.039 47.792 474.016 48.9932 475.969 48.9932C478.039 48.9932 479.416 48.2217 480.1 46.6787V35.1504H482.81V51H480.232L480.173 49.4326ZM504.952 31.9863H498.097V51H495.299V31.9863H488.458V29.6719H504.952V31.9863ZM518.92 49.4326C517.865 50.6729 516.318 51.293 514.277 51.293C512.587 51.293 511.298 50.8047 510.409 49.8281C509.531 48.8418 509.086 47.3867 509.076 45.4629V35.1504H511.786V45.3896C511.786 47.792 512.763 48.9932 514.716 48.9932C516.786 48.9932 518.163 48.2217 518.847 46.6787V35.1504H521.557V51H518.979L518.92 49.4326ZM541.956 43.251C541.956 45.6729 541.399 47.6211 540.286 49.0957C539.172 50.5605 537.678 51.293 535.803 51.293C533.801 51.293 532.254 50.585 531.16 49.1689L531.028 51H528.538V28.5H531.248V36.8936C532.341 35.5361 533.85 34.8574 535.774 34.8574C537.698 34.8574 539.207 35.585 540.3 37.04C541.404 38.4951 541.956 40.4873 541.956 43.0166V43.251ZM539.246 42.9434C539.246 41.0977 538.889 39.6719 538.176 38.666C537.464 37.6602 536.438 37.1572 535.1 37.1572C533.313 37.1572 532.029 37.9873 531.248 39.6475V46.5029C532.078 48.1631 533.372 48.9932 535.13 48.9932C536.428 48.9932 537.439 48.4902 538.162 47.4844C538.884 46.4785 539.246 44.9648 539.246 42.9434ZM554.811 51.293C552.662 51.293 550.914 50.5898 549.566 49.1836C548.219 47.7676 547.545 45.8779 547.545 43.5146V43.0166C547.545 41.4443 547.843 40.043 548.439 38.8125C549.044 37.5723 549.884 36.6055 550.958 35.9121C552.042 35.209 553.214 34.8574 554.474 34.8574C556.534 34.8574 558.136 35.5361 559.278 36.8936C560.421 38.251 560.992 40.1943 560.992 42.7236V43.8516H550.255C550.294 45.4141 550.748 46.6787 551.617 47.6455C552.496 48.6025 553.609 49.0811 554.957 49.0811C555.914 49.0811 556.725 48.8857 557.389 48.4951C558.053 48.1045 558.634 47.5869 559.132 46.9424L560.787 48.2314C559.459 50.2725 557.467 51.293 554.811 51.293ZM554.474 37.084C553.38 37.084 552.462 37.4844 551.72 38.2852C550.978 39.0762 550.519 40.1895 550.343 41.625H558.282V41.4199C558.204 40.043 557.833 38.9785 557.169 38.2266C556.505 37.4648 555.606 37.084 554.474 37.084ZM579.443 31.7666L577.392 37.5381H576.63L574.58 31.7812V37.5381H573.261V29.6719H574.902L577.011 35.5166L579.121 29.6719H580.761V37.5381H579.443V31.7666ZM572.104 30.8584H569.951V37.5381H568.618V30.8584H566.45V29.6719H572.104V30.8584Z" fill="white"/>
</g>
<g filter="url(#filter1_d)">
<path d="M93.994 11.6397C92.8899 7.45168 89.6369 4.15332 85.5066 3.03398C78.0201 1 48 1 48 1C48 1 17.9801 1 10.4934 3.03398C6.3631 4.1535 3.11009 7.45168 2.00601 11.6397C0 19.2307 0 35.0687 0 35.0687C0 35.0687 0 50.9067 2.00601 58.4977C3.11009 62.6857 6.3631 65.8467 10.4934 66.966C17.9801 69 48 69 48 69C48 69 78.0199 69 85.5066 66.966C89.6369 65.8467 92.8899 62.6857 93.994 58.4977C96 50.9067 96 35.0687 96 35.0687C96 35.0687 96 19.2307 93.994 11.6397Z" fill="#D72523"/>
<path d="M93.994 11.6397C92.8899 7.45168 89.6369 4.15332 85.5066 3.03398C78.0201 1 48 1 48 1C48 1 17.9801 1 10.4934 3.03398C6.3631 4.1535 3.11009 7.45168 2.00601 11.6397C0 19.2307 0 35.0687 0 35.0687C0 35.0687 0 50.9067 2.00601 58.4977C3.11009 62.6857 6.3631 65.8467 10.4934 66.966C17.9801 69 48 69 48 69C48 69 78.0199 69 85.5066 66.966C89.6369 65.8467 92.8899 62.6857 93.994 58.4977C96 50.9067 96 35.0687 96 35.0687C96 35.0687 96 19.2307 93.994 11.6397Z" fill="url(#paint0_linear)"/>
<path d="M93.7523 11.7034L93.7523 11.7036C94.7479 15.471 95.2488 21.3044 95.4996 26.2136C95.6248 28.6645 95.6874 30.8788 95.7187 32.4803C95.7344 33.281 95.7422 33.9284 95.7461 34.3755C95.748 34.5991 95.749 34.7725 95.7495 34.89L95.7499 35.0235L95.75 35.0574L95.75 35.0659V35.068V35.0686C95.75 35.0686 95.75 35.0687 95.7981 35.0687C95.8334 35.0687 95.8944 35.0687 96 35.0687C95.75 35.0687 95.75 35.0688 95.75 35.0689V35.0694V35.0715L95.75 35.08L95.7499 35.1139L95.7495 35.2474C95.749 35.3649 95.748 35.5383 95.7461 35.7619C95.7422 36.209 95.7344 36.8564 95.7187 37.6571C95.6874 39.2587 95.6248 41.4729 95.4996 43.9238C95.2488 48.8331 94.7479 54.6664 93.7523 58.4338L93.7523 58.434C92.6718 62.5325 89.4883 65.6279 85.4412 66.7247L85.441 66.7248C83.5956 67.2261 80.3384 67.6064 76.4693 67.8926C72.6073 68.1782 68.157 68.3688 63.9382 68.4959C59.7199 68.6229 55.7352 68.6865 52.8049 68.7182C51.3398 68.7341 50.1384 68.7421 49.3033 68.746C48.8858 68.748 48.5599 68.749 48.3384 68.7495L48.0861 68.7499L48.0216 68.75L48.0054 68.75H48.0013H48.0003C48.0001 68.75 48 68.75 48 69C48 68.75 47.9999 68.75 47.9997 68.75H47.9987H47.9946L47.9783 68.75L47.9139 68.7499L47.6616 68.7495C47.4401 68.749 47.1142 68.748 46.6966 68.746C45.8616 68.7421 44.6602 68.7341 43.1951 68.7182C40.2648 68.6865 36.2801 68.6229 32.0617 68.4959C27.843 68.3688 23.3927 68.1782 19.5307 67.8926C15.6616 67.6064 12.4043 67.2261 10.559 66.7248L10.5588 66.7247C6.51173 65.6279 3.32824 62.5325 2.24775 58.434L2.24772 58.4338C1.25213 54.6664 0.751222 48.8331 0.500426 43.9238C0.375217 41.4729 0.312603 39.2587 0.281296 37.6571C0.265644 36.8564 0.257819 36.209 0.253908 35.7619C0.251953 35.5383 0.250976 35.3649 0.250488 35.2474L0.250061 35.1139L0.250008 35.08L0.250001 35.0715L0.25 35.0694L0.25 35.0689C0.25 35.0688 0.25 35.0687 0 35.0687C0.25 35.0687 0.25 35.0687 0.25 35.0686L0.25 35.068L0.250001 35.0659L0.250008 35.0574L0.250061 35.0235L0.250488 34.89C0.250976 34.7725 0.251953 34.5991 0.253908 34.3755C0.257819 33.9284 0.265644 33.281 0.281296 32.4803C0.312603 30.8788 0.375217 28.6645 0.500426 26.2136C0.751222 21.3044 1.25213 15.471 2.24772 11.7036L2.24775 11.7034C3.32938 7.60058 6.51608 4.37105 10.5588 3.27527L10.559 3.27523C12.4043 2.77388 15.6616 2.39358 19.5307 2.1074C23.3927 1.82176 27.843 1.63121 32.0617 1.50413C36.2801 1.37707 40.2648 1.31354 43.1951 1.28177C44.6602 1.26588 45.8616 1.25794 46.6966 1.25397C47.1142 1.25198 47.4401 1.25099 47.6616 1.2505L47.9139 1.25006L47.9783 1.25001L47.9946 1.25L47.9987 1.25L47.9997 1.25C47.9999 1.25 48 1.25 48 1C48 1.25 48.0001 1.25 48.0003 1.25L48.0013 1.25L48.0054 1.25L48.0216 1.25001L48.0861 1.25006L48.3384 1.2505C48.5599 1.25099 48.8858 1.25198 49.3034 1.25397C50.1384 1.25794 51.3398 1.26588 52.8049 1.28177C55.7352 1.31354 59.72 1.37707 63.9383 1.50413C68.1571 1.63121 72.6074 1.82176 76.4694 2.1074C80.3385 2.39358 83.5957 2.77388 85.441 3.27523L85.4412 3.27528C89.4839 4.37088 92.6706 7.60058 93.7523 11.7034Z" stroke="black" stroke-width="0.5"/>
</g>
<path d="M69.7304 53.8705L69.6661 53.9516H69.7696H72.1256C73.0378 53.9516 73.9068 54.303 74.5477 54.9351L88.9583 69.1486C90.2829 70.4691 90.2829 72.6042 88.9441 73.9248L84.8535 77.9593L84.8533 77.9595C83.5287 79.2801 81.3631 79.2803 80.0238 77.9593L65.613 63.7457C64.9721 63.1136 64.6161 62.2568 64.6161 61.3577V59.0339V58.9322L64.5355 58.9943C59.4417 62.9225 53.0347 65.2567 46.0647 65.2567C29.4838 65.2567 16.05 52.0057 16.05 35.6534C16.05 19.301 29.4838 6.05 46.0647 6.05C62.6456 6.05 76.0794 19.301 76.0794 35.6534C76.0794 42.5275 73.713 48.8465 69.7304 53.8705ZM27.5133 35.6534C27.5133 45.7752 35.8187 53.9516 46.0647 53.9516C56.3252 53.9516 64.6161 45.7609 64.6161 35.6534C64.6161 25.5315 56.3107 17.3551 46.0647 17.3551C35.8041 17.3551 27.5133 25.5458 27.5133 35.6534Z" fill="#212121"/>
<path d="M69.7304 53.8705L69.6661 53.9516H69.7696H72.1256C73.0378 53.9516 73.9068 54.303 74.5477 54.9351L88.9583 69.1486C90.2829 70.4691 90.2829 72.6042 88.9441 73.9248L84.8535 77.9593L84.8533 77.9595C83.5287 79.2801 81.3631 79.2803 80.0238 77.9593L65.613 63.7457C64.9721 63.1136 64.6161 62.2568 64.6161 61.3577V59.0339V58.9322L64.5355 58.9943C59.4417 62.9225 53.0347 65.2567 46.0647 65.2567C29.4838 65.2567 16.05 52.0057 16.05 35.6534C16.05 19.301 29.4838 6.05 46.0647 6.05C62.6456 6.05 76.0794 19.301 76.0794 35.6534C76.0794 42.5275 73.713 48.8465 69.7304 53.8705ZM27.5133 35.6534C27.5133 45.7752 35.8187 53.9516 46.0647 53.9516C56.3252 53.9516 64.6161 45.7609 64.6161 35.6534C64.6161 25.5315 56.3107 17.3551 46.0647 17.3551C35.8041 17.3551 27.5133 25.5458 27.5133 35.6534Z" fill="url(#paint1_linear)"/>
<path d="M69.7304 53.8705L69.6661 53.9516H69.7696H72.1256C73.0378 53.9516 73.9068 54.303 74.5477 54.9351L88.9583 69.1486C90.2829 70.4691 90.2829 72.6042 88.9441 73.9248L84.8535 77.9593L84.8533 77.9595C83.5287 79.2801 81.3631 79.2803 80.0238 77.9593L65.613 63.7457C64.9721 63.1136 64.6161 62.2568 64.6161 61.3577V59.0339V58.9322L64.5355 58.9943C59.4417 62.9225 53.0347 65.2567 46.0647 65.2567C29.4838 65.2567 16.05 52.0057 16.05 35.6534C16.05 19.301 29.4838 6.05 46.0647 6.05C62.6456 6.05 76.0794 19.301 76.0794 35.6534C76.0794 42.5275 73.713 48.8465 69.7304 53.8705ZM27.5133 35.6534C27.5133 45.7752 35.8187 53.9516 46.0647 53.9516C56.3252 53.9516 64.6161 45.7609 64.6161 35.6534C64.6161 25.5315 56.3107 17.3551 46.0647 17.3551C35.8041 17.3551 27.5133 25.5458 27.5133 35.6534Z" stroke="black" stroke-width="0.1"/>
<path d="M31.5714 49.0855L29.4162 44.388L27.381 46.4271L31.5714 49.0855Z" fill="#212121"/>
<g clip-path="url(#clip1)">
<path d="M58.9358 17.8263L58.9358 17.8263L58.9401 17.825C59.2069 17.7409 59.4897 17.7208 59.7657 17.7663C60.0417 17.8118 60.303 17.9217 60.5287 18.087C60.7543 18.2523 60.9379 18.4684 61.0645 18.7178C61.1911 18.9673 61.2572 19.243 61.2575 19.5227V41.8727C61.2575 42.8853 60.6416 43.8326 59.5831 44.5382C58.5264 45.2426 57.0523 45.6864 55.4123 45.6864C53.7723 45.6864 52.2983 45.2425 51.2415 44.538C50.183 43.8323 49.5672 42.885 49.5672 41.8727C49.5672 40.8604 50.183 39.9131 51.2415 39.2074C52.2981 38.503 53.7719 38.0591 55.4116 38.059C56.0766 38.0627 56.7388 38.1441 57.3849 38.3014L57.694 38.3768V38.0585V26.3368V26.003L57.3737 26.0969L41.12 30.859L40.9403 30.9116V31.0989V45.9364C40.9403 46.9487 40.3244 47.896 39.2659 48.6016C38.2092 49.3061 36.7352 49.75 35.0951 49.75C33.4551 49.75 31.9811 49.3061 30.9244 48.6016C29.8659 47.896 29.25 46.9487 29.25 45.9364C29.25 44.924 29.8659 43.9767 30.9244 43.2711C31.9809 42.5667 33.4547 42.1228 35.0944 42.1227C35.7594 42.1265 36.4217 42.2077 37.0679 42.3645L37.3769 42.4395V42.1216V25.5235C37.3771 25.1445 37.4982 24.7753 37.7226 24.4698C37.9466 24.1648 38.2618 23.9391 38.6226 23.8253L58.9358 17.8263Z" fill="white"/>
<path d="M58.9358 17.8263L58.9358 17.8263L58.9401 17.825C59.2069 17.7409 59.4897 17.7208 59.7657 17.7663C60.0417 17.8118 60.303 17.9217 60.5287 18.087C60.7543 18.2523 60.9379 18.4684 61.0645 18.7178C61.1911 18.9673 61.2572 19.243 61.2575 19.5227V41.8727C61.2575 42.8853 60.6416 43.8326 59.5831 44.5382C58.5264 45.2426 57.0523 45.6864 55.4123 45.6864C53.7723 45.6864 52.2983 45.2425 51.2415 44.538C50.183 43.8323 49.5672 42.885 49.5672 41.8727C49.5672 40.8604 50.183 39.9131 51.2415 39.2074C52.2981 38.503 53.7719 38.0591 55.4116 38.059C56.0766 38.0627 56.7388 38.1441 57.3849 38.3014L57.694 38.3768V38.0585V26.3368V26.003L57.3737 26.0969L41.12 30.859L40.9403 30.9116V31.0989V45.9364C40.9403 46.9487 40.3244 47.896 39.2659 48.6016C38.2092 49.3061 36.7352 49.75 35.0951 49.75C33.4551 49.75 31.9811 49.3061 30.9244 48.6016C29.8659 47.896 29.25 46.9487 29.25 45.9364C29.25 44.924 29.8659 43.9767 30.9244 43.2711C31.9809 42.5667 33.4547 42.1228 35.0944 42.1227C35.7594 42.1265 36.4217 42.2077 37.0679 42.3645L37.3769 42.4395V42.1216V25.5235C37.3771 25.1445 37.4982 24.7753 37.7226 24.4698C37.9466 24.1648 38.2618 23.9391 38.6226 23.8253L58.9358 17.8263Z" fill="url(#paint2_linear)"/>
<path d="M58.9358 17.8263L58.9358 17.8263L58.9401 17.825C59.2069 17.7409 59.4897 17.7208 59.7657 17.7663C60.0417 17.8118 60.303 17.9217 60.5287 18.087C60.7543 18.2523 60.9379 18.4684 61.0645 18.7178C61.1911 18.9673 61.2572 19.243 61.2575 19.5227V41.8727C61.2575 42.8853 60.6416 43.8326 59.5831 44.5382C58.5264 45.2426 57.0523 45.6864 55.4123 45.6864C53.7723 45.6864 52.2983 45.2425 51.2415 44.538C50.183 43.8323 49.5672 42.885 49.5672 41.8727C49.5672 40.8604 50.183 39.9131 51.2415 39.2074C52.2981 38.503 53.7719 38.0591 55.4116 38.059C56.0766 38.0627 56.7388 38.1441 57.3849 38.3014L57.694 38.3768V38.0585V26.3368V26.003L57.3737 26.0969L41.12 30.859L40.9403 30.9116V31.0989V45.9364C40.9403 46.9487 40.3244 47.896 39.2659 48.6016C38.2092 49.3061 36.7352 49.75 35.0951 49.75C33.4551 49.75 31.9811 49.3061 30.9244 48.6016C29.8659 47.896 29.25 46.9487 29.25 45.9364C29.25 44.924 29.8659 43.9767 30.9244 43.2711C31.9809 42.5667 33.4547 42.1228 35.0944 42.1227C35.7594 42.1265 36.4217 42.2077 37.0679 42.3645L37.3769 42.4395V42.1216V25.5235C37.3771 25.1445 37.4982 24.7753 37.7226 24.4698C37.9466 24.1648 38.2618 23.9391 38.6226 23.8253L58.9358 17.8263Z" stroke="black" stroke-width="0.5"/>
<path d="M36 53L28.5 43L26 49.2573L36 53Z" fill="#212121"/>
<path d="M36.3414 51.8033L31.3451 46.772L30.3946 50.7938L36.3414 51.8033Z" fill="#212121"/>
<path d="M32.917 48.9143L29.3974 45.1443L28.107 47.7269L32.917 48.9143Z" fill="#212121"/>
<path d="M31.9164 47.7322L29.1723 44.0064L28.0072 46.3911L31.9164 47.7322Z" fill="#212121"/>
<path d="M30.5153 46.6913L29.4549 45.0025L29.0033 46.0845L30.5153 46.6913Z" fill="#212121"/>
<path d="M33.5 49L32.0521 47.4612L31.0086 48.0829L33.5 49Z" fill="#212121"/>
<path d="M32.591 48.1311L30.565 45.8017L29.1753 46.9897L32.591 48.1311Z" fill="#212121"/>
<path d="M32.1828 47.8225L30.0453 44.9152L28.709 46.7016L32.1828 47.8225Z" fill="#212121"/>
<path d="M29 43L29.9333 44.7297L30.8667 46.027L31.3333 46.6757L32.9667 48.4054L34.6 49.9189L36 51" stroke="black" stroke-width="0.1"/>
</g>
<path d="M32.6244 48.6363L27.8466 41.6768L25.2051 46.3056L32.6244 48.6363Z" fill="#212121"/>
</g>
<defs>
<filter id="filter0_d" x="110.953" y="22" width="475.808" height="35.3516" filterUnits="userSpaceOnUse" color-interpolation-filters="sRGB">
<feFlood flood-opacity="0" result="BackgroundImageFix"/>
<feColorMatrix in="SourceAlpha" type="matrix" values="0 0 0 0 0 0 0 0 0 0 0 0 0 0 0 0 0 0 127 0"/>
<feOffset dx="2" dy="2"/>
<feGaussianBlur stdDeviation="2"/>
<feColorMatrix type="matrix" values="0 0 0 0 0 0 0 0 0 0 0 0 0 0 0 0 0 0 0.25 0"/>
<feBlend mode="normal" in2="BackgroundImageFix" result="effect1_dropShadow"/>
<feBlend mode="normal" in="SourceGraphic" in2="effect1_dropShadow" result="shape"/>
</filter>
<filter id="filter1_d" x="-4" y="1" width="104" height="76" filterUnits="userSpaceOnUse" color-interpolation-filters="sRGB">
<feFlood flood-opacity="0" result="BackgroundImageFix"/>
<feColorMatrix in="SourceAlpha" type="matrix" values="0 0 0 0 0 0 0 0 0 0 0 0 0 0 0 0 0 0 127 0"/>
<feOffset dy="4"/>
<feGaussianBlur stdDeviation="2"/>
<feColorMatrix type="matrix" values="0 0 0 0 0 0 0 0 0 0 0 0 0 0 0 0 0 0 0.25 0"/>
<feBlend mode="normal" in2="BackgroundImageFix" result="effect1_dropShadow"/>
<feBlend mode="normal" in="SourceGraphic" in2="effect1_dropShadow" result="shape"/>
</filter>
<linearGradient id="paint0_linear" x1="66.9323" y1="-115.599" x2="37.6115" y2="54.3575" gradientUnits="userSpaceOnUse">
<stop stop-color="white"/>
<stop offset="0.0001" stop-color="white" stop-opacity="0.927083"/>
<stop offset="0.838542" stop-color="white" stop-opacity="0"/>
</linearGradient>
<linearGradient id="paint1_linear" x1="60.3229" y1="-56.3542" x2="28.5616" y2="34.4029" gradientUnits="userSpaceOnUse">
<stop stop-color="white"/>
<stop offset="1" stop-color="white" stop-opacity="0"/>
</linearGradient>
<linearGradient id="paint2_linear" x1="75.3483" y1="1.79776" x2="45.3146" y2="58.5281" gradientUnits="userSpaceOnUse">
<stop stop-color="white"/>
<stop offset="1" stop-color="white" stop-opacity="0"/>
</linearGradient>
<clipPath id="clip0">
<rect width="677" height="80" fill="white"/>
</clipPath>
<clipPath id="clip1">
<rect width="33" height="33" fill="white" transform="translate(29 17)"/>
</clipPath>
</defs>
</svg>
